<?xml version="1.0" encoding="iso-8859-1"?>
<!-- Uploaded to: SVG Repo, www.svgrepo.com, Generator: SVG Repo Mixer Tools -->
<svg fill="#000000" height="800px" width="800px" version="1.1" id="Layer_1" xmlns="http://www.w3.org/2000/svg" xmlns:xlink="http://www.w3.org/1999/xlink" 
	 viewBox="0 0 512 512" xml:space="preserve">
<g transform="translate(1 1)">
	<g>
		<g>
			<path d="M261.183,191.853c-34.987,0-63.147,28.16-63.147,63.147c0,34.987,28.16,63.147,63.147,63.147S324.33,289.987,324.33,255
				C324.33,220.013,296.17,191.853,261.183,191.853z M261.183,301.08c-25.6,0-46.08-20.48-46.08-46.08
				c0-25.6,20.48-46.08,46.08-46.08s46.08,20.48,46.08,46.08C307.263,280.6,286.783,301.08,261.183,301.08z"/>
			<path d="M479.636,154.307c3.413-17.067,0-32.427-9.387-44.373c-8.261-12.015-21.813-19.399-40.066-21.581
				c-0.897-5.509-3.01-10.606-6.014-15.113c-5.12-7.68-13.653-12.8-23.04-14.507c-10.24-1.707-19.627,0.853-27.307,5.973
				c-10.297,7.587-15.422,19.305-14.956,30.999c-5.517,1.569-11.118,3.313-16.797,5.24C323.839,38.694,294.616-1,261.183-1
				c-32.749,0-61.627,39.275-79.792,100.947c-57.791-20.161-107.512-21.704-129.275,8.279c-8.25,11.25-10.562,26.458-6.367,45.039
				c-3.799,2.46-7.172,5.667-9.846,9.575c-11.947,16.213-7.68,39.253,8.533,50.347c5.973,4.267,12.8,6.827,20.48,6.827
				c1.707,0,4.267,0,6.827-0.853c2.125-0.386,4.203-0.957,6.212-1.683c8.885,12.299,19.199,24.851,30.755,37.406
				c-35.813,38.525-59.334,76.657-64.273,106.784c-2.56,16.213,0,29.867,6.827,40.107c11.093,15.36,30.72,23.893,58.88,23.893
				c19.93,0,43.881-4.472,71.455-14.059C199.632,472.382,228.211,511,261.183,511c15.106,0,28.872-7.366,41.303-20.889
				c4.357,1.905,9.147,2.969,14.164,2.969c19.627,0,35.84-16.213,35.84-35.84c0-12.454-6.533-23.526-16.318-29.961
				c1.988-5.777,3.874-11.737,5.65-17.874c30.336,10.5,58.224,16.261,80.642,16.261c6.827,0,13.653-0.853,19.627-2.56
				c14.507-2.56,23.893-9.387,29.867-18.773c22.301-37.559,2.222-90.456-54.128-148.975
				C453.384,218.287,475.228,183.204,479.636,154.307z M384.063,78.36c3.413-2.56,6.827-3.413,11.093-3.413
				c0.853,0,2.56,0.853,3.413,0c5.12,0.853,9.387,3.413,11.947,7.68c1.837,2.296,2.926,4.84,3.413,7.497v5.303
				c0,0.756-0.042,1.512-0.124,2.263c-0.957,4.147-3.473,8.94-7.556,11.39c-8.533,5.973-20.48,4.267-26.453-4.267
				S375.53,84.333,384.063,78.36z M363.267,111.73c0.612,1.13,1.282,2.241,2.023,3.323c1.398,1.897,2.941,3.612,4.593,5.156
				c0.034,0.032,0.067,0.065,0.101,0.097c0.333,0.309,0.673,0.607,1.015,0.901c7.001,6.128,15.576,9.206,24.157,9.206
				c6.827,0,14.507-2.56,20.48-6.827c1.907-1.192,3.607-2.657,5.133-4.307c4.045-4.2,6.982-9.518,8.588-15.308
				c11.914,1.716,21.277,6.83,27.239,14.496c6.827,8.533,8.533,18.773,6.827,31.573c-3.873,25.657-24.778,58.18-58.185,92.738
				c-13.425-12.942-28.562-26.118-45.341-39.429c-2.446-31.372-7.088-60.517-13.513-86.404
				C352.099,115.015,357.732,113.274,363.267,111.73z M308.97,323.267c-15.859,11.138-31.528,21.276-46.826,30.368
				c-15.742-8.982-31.793-19.097-47.894-30.368c-12.01-8.407-23.544-17.098-34.538-25.97c-0.847-13.582-1.302-27.693-1.302-42.297
				c0-14.598,0.455-28.703,1.301-42.28c10.995-8.839,22.537-17.536,34.539-25.987c15.55-11.07,31.344-21.24,47.106-30.393
				c15.656,9.112,31.606,19.263,47.614,30.393c11.902,8.34,23.183,16.68,33.838,24.981c0.833,13.885,1.238,28.327,1.149,43.286
				c0,14.706-0.494,29.261-1.448,43.521C331.864,306.819,320.669,315.088,308.97,323.267z M340.398,322.891
				c-2.396,22.384-5.973,43.753-10.626,63.482c-15.78-6.253-32.411-13.856-49.546-22.841c12.046-7.315,24.468-15.307,37.277-24.051
				C325.374,333.97,333.006,328.436,340.398,322.891z M244.718,363.623c-18.013,9.95-35.385,18.354-51.804,25.119
				c-4.903-20.254-8.776-43.01-11.284-67.867c7.539,5.752,15.286,11.398,23.233,16.899
				C217.894,346.997,231.254,355.628,244.718,363.623z M161.881,282.337c-10.399-9.077-20.205-18.28-29.339-27.513
				c9.11-9.097,18.925-18.212,29.353-27.242c-0.363,8.997-0.552,18.141-0.552,27.418
				C161.343,264.249,161.527,273.366,161.881,282.337z M181.602,189.4c2.467-24.569,6.269-47.086,11.08-67.171
				c16.549,6.702,34,14.982,51.975,24.724c-13.56,8.056-27.154,16.786-40.647,26.127C196.353,178.409,188.88,183.86,181.602,189.4z
				 M278.659,146.699c17.475-9.335,34.782-17.347,51.545-23.865c4.712,19.774,8.42,41.888,10.795,65.987
				c-7.02-5.234-14.277-10.483-21.789-15.741C305.981,163.787,292.386,154.946,278.659,146.699z M361.281,226.595
				c11.467,9.562,22.066,19.041,31.737,28.376c-9.75,9.4-20.365,18.906-31.759,28.426c0.405-9.362,0.618-18.834,0.618-28.397
				C361.876,245.383,361.67,235.91,361.281,226.595z M261.183,16.067c23.712,0,48.615,33.712,64.837,90.719
				c-20.73,8.025-42.262,18.201-64.035,30.231c-21.861-12.264-43.823-22.876-64.98-31.248
				C213.163,49.381,237.613,16.067,261.183,16.067z M53.823,199.533c-8.533-5.973-10.24-17.92-4.267-26.453
				c1.228-1.842,2.79-3.347,4.561-4.526l4.825-1.448c5.973-1.707,11.947-0.853,17.067,2.56c4.134,2.48,6.651,6.57,7.58,11.479
				c0.727,4.781-0.34,9.874-3.314,14.121c-2.56,4.267-6.827,6.827-11.947,7.68S58.09,202.093,53.823,199.533z M94.783,205.507
				c1.039-1.731,1.966-3.499,2.779-5.293c8.315-15.748,3.471-35.792-11.313-45.907c-7.281-5.365-15.937-7.45-24.271-6.662
				c-2.878-12.08-1.121-21.81,3.791-29.178c15.699-22.077,57.632-21.301,111.198-2.226c-6.526,26.207-11.233,55.786-13.687,87.644
				c-15.353,12.606-29.629,25.55-42.579,38.545c-10.644-11.545-20.194-23.065-28.479-34.363
				C93.076,207.213,93.93,206.36,94.783,205.507z M65.77,391.533c-4.267-6.827-5.973-16.213-4.267-27.307
				c4.348-27.052,25.929-61.489,59.006-96.962c13.018,13.204,27.343,26.313,42.751,39.031c2.452,32.249,7.186,62.152,13.78,88.589
				C123.707,414.101,82.515,414.189,65.77,391.533z M316.65,475.16c-10.096,0-18.516-8.299-18.751-18.347
				c0.235-10.048,8.655-18.347,18.751-18.347c2.56,0,4.267,0,6.827,0.853l2.435,0.812c5.643,3.266,9.511,9.368,9.511,16.255
				C335.423,466.627,326.89,475.16,316.65,475.16z M320.063,420.547c-21.333-2.56-40.107,14.507-40.107,35.84
				c0,8.533,3.413,17.067,8.533,23.04c-9.387,9.387-17.92,14.507-27.307,14.507c-23.365,0-47.595-32.736-63.756-88.234
				c20.069-8,41.852-18.531,65.231-31.826c21.173,11.599,42.361,21.505,62.734,29.466
				C323.72,409.265,321.943,415.01,320.063,420.547z M458.303,395.8c-3.413,5.12-9.387,9.387-18.773,11.093
				c-19.799,4.304-53.063-0.298-93.212-14.344c6.381-25.985,10.937-54.539,13.408-84.625c16.873-13.502,32.233-26.998,45.914-40.302
				C455.342,319.385,475.333,365.713,458.303,395.8z"/>
		</g>
	</g>
</g>
</svg>